<?xml version="1.0" encoding="UTF-8"?>
<svg version="1.1" xmlns="http://www.w3.org/2000/svg" width="500" height="500">
<path d="M0 0 C165 0 330 0 500 0 C500 165 500 330 500 500 C335 500 170 500 0 500 C0 335 0 170 0 0 Z " fill="#FEFEFE" transform="translate(0,0)"/>
<path d="M0 0 C165 0 330 0 500 0 C500 165 500 330 500 500 C335 500 170 500 0 500 C0 335 0 170 0 0 Z M44.6875 48.625 C41.94942628 52.47858524 41.87292484 54.60562525 41.86577892 59.33293438 C41.86342669 59.993299 41.86107446 60.65366363 41.85865095 61.3340393 C41.85194229 63.56846816 41.85241973 65.80283912 41.85282898 68.03727722 C41.84953151 69.64681233 41.84580619 71.25634661 41.8416875 72.86587983 C41.83164599 77.30586344 41.82794725 81.74583354 41.82529819 86.1858269 C41.82140148 90.96784392 41.81182269 95.74985018 41.80308533 100.53186035 C41.78330254 112.08918634 41.77325221 123.64651322 41.76435754 135.20385191 C41.75997743 140.64268502 41.75460989 146.08151716 41.74936867 151.5203495 C41.73235425 169.59415961 41.71785942 187.66796911 41.71061993 205.741786 C41.70870994 210.43438404 41.70678962 215.12698206 41.70483398 219.81958008 C41.70435024 220.98594328 41.7038665 222.15230648 41.7033681 223.35401402 C41.69506541 242.25407829 41.66972541 261.15407932 41.63725331 280.05411597 C41.60420647 299.44635718 41.5861733 318.83856622 41.58297569 338.23083574 C41.58080834 349.12373512 41.57202693 360.0165423 41.54651451 370.90941429 C41.52483991 380.18527528 41.51674109 389.46102168 41.52648129 398.73690512 C41.53103546 403.47092372 41.52907507 408.20470572 41.50971985 412.93869209 C41.49215486 417.2721877 41.49303144 421.60527292 41.50861714 425.93877248 C41.51100339 427.50679952 41.50661716 429.07485449 41.49478849 430.64283874 C41.40531344 442.52805949 41.40531344 442.52805949 47.27409196 452.49482071 C53.02135064 457.86739532 61.25636759 456.68854647 68.59385681 456.62818909 C70.20287684 456.63323603 71.81189125 456.640466 73.42089278 456.64968723 C77.83643545 456.66861586 82.25142427 456.6563724 86.66695297 456.6389643 C91.43120171 456.62559646 96.1953691 456.64102535 100.95960999 456.65278625 C110.29067985 456.67117196 119.6215404 456.66264411 128.95260375 456.64469803 C136.53628927 456.63067548 144.11991795 456.62677849 151.70361519 456.6301403 C152.78274786 456.63061775 153.86188053 456.63109519 154.97371419 456.6315871 C157.16592762 456.63261343 159.35814103 456.63366878 161.55035443 456.63475286 C180.93847804 456.64332192 200.32650059 456.62663869 219.71459961 456.59692383 C238.52811937 456.56808996 257.3414935 456.56100074 276.1550293 456.57641602 C296.63975261 456.59317762 317.12440676 456.59721247 337.60913187 456.57970566 C339.79361092 456.57786126 341.97808998 456.57602654 344.16256905 456.57420158 C345.77478764 456.57283345 345.77478764 456.57283345 347.4195763 456.57143768 C354.99363155 456.56583173 362.56765304 456.56914005 370.14170647 456.57574654 C379.37279504 456.58347866 388.60374025 456.57673156 397.83479994 456.5515715 C402.54465597 456.53907324 407.25428879 456.5329339 411.96415329 456.54411316 C416.27656121 456.55415572 420.58852402 456.54569561 424.90087778 456.52253198 C426.46001245 456.51737375 428.01918702 456.51893265 429.57830428 456.52792663 C440.8817642 456.60124502 440.8817642 456.60124502 451 452 C455.11415861 446.83092892 456.12398016 443.05964478 456.1398077 436.56242847 C456.14275912 435.90289798 456.14571055 435.24336748 456.14875141 434.56385121 C456.15746195 432.33827583 456.15902482 430.1127523 456.16062927 427.88716125 C456.16535891 426.28160023 456.17050964 424.6760404 456.17604691 423.07048196 C456.18997211 418.64609385 456.19754198 414.22171398 456.2040199 409.79730952 C456.21038567 406.00547235 456.22045648 402.21364875 456.23058056 398.42182002 C456.26392231 385.92829013 456.28542848 373.43475199 456.30378041 360.94119218 C456.30857439 357.68891337 456.31355783 354.4366349 456.31858563 351.18435645 C456.34955405 330.99592635 456.3762444 310.80749341 456.39300442 290.61904621 C456.39695403 285.94175016 456.40095701 281.26445415 456.4050293 276.5871582 C456.40654184 274.84334104 456.40654184 274.84334104 456.40808494 273.06429525 C456.42509653 254.22636729 456.46621068 235.38857058 456.51705229 216.55070672 C456.56880019 197.21832135 456.59794289 177.88600353 456.6052013 158.55354947 C456.60986694 147.69579001 456.62465385 136.83824554 456.6649456 125.98055458 C456.69921395 116.7347227 456.71319783 107.4891446 456.70052146 98.24325285 C456.69468723 93.52518928 456.6986122 88.80766264 456.7286911 84.08967972 C456.75600881 79.7695771 456.75558919 75.45039401 456.73318065 71.13027134 C456.72995222 69.56830428 456.73685832 68.00627614 456.75497787 66.44441084 C456.90715894 55.70348678 456.90715894 55.70348678 451.87283474 46.48933667 C447.16158768 42.74280588 443.13153759 41.62487095 437.17208099 41.61968327 C436.5068014 41.61502335 435.8415218 41.61036343 435.15608221 41.6055623 C432.9288447 41.59362001 430.70221809 41.60300431 428.47497559 41.61231995 C426.86127269 41.60814669 425.24757274 41.60266922 423.63387823 41.59600013 C419.20094422 41.58152589 414.76819582 41.58579641 410.33525157 41.59316695 C405.55399366 41.59789137 400.77277633 41.58539527 395.99153137 41.57514954 C386.62562231 41.55794249 377.25978028 41.5571254 367.89385951 41.56236244 C360.28296708 41.56640149 352.67209448 41.56496374 345.061203 41.55961418 C343.43727155 41.55849155 343.43727155 41.55849155 341.7805334 41.55734624 C339.58130999 41.55581479 337.38208658 41.55427644 335.18286318 41.55273127 C314.55368126 41.53899957 293.92453726 41.54444884 273.29535621 41.55591648 C254.41426285 41.56585166 235.53326745 41.55290444 216.6521892 41.52898229 C197.27224739 41.50461274 177.89235125 41.49497801 158.51239443 41.50163502 C147.62909884 41.50513174 136.74587863 41.50286521 125.8625946 41.48538399 C116.59886629 41.4706889 107.33526644 41.46999134 98.07154071 41.4874549 C93.34370312 41.49598912 88.61609526 41.49805549 83.88826942 41.48280334 C79.5617551 41.4690184 75.23566868 41.47363909 70.90917951 41.49304258 C69.34264194 41.49682198 67.7760706 41.49382507 66.20956296 41.48343093 C64.08183053 41.47031494 61.95558686 41.48179358 59.82791901 41.49942875 C58.05456735 41.49958975 58.05456735 41.49958975 56.24539042 41.49975401 C51.13125863 42.28804866 48.04938337 44.80880807 44.6875 48.625 Z " fill="#FDFDFD" transform="translate(0,0)"/>
<path d="M0 0 C0.66036462 -0.00235223 1.32072925 -0.00470446 2.00110492 -0.00712797 C4.23553378 -0.01383664 6.46990474 -0.01335919 8.70434284 -0.01294994 C10.31387795 -0.01624741 11.92341224 -0.01997273 13.53294545 -0.02409142 C17.97292907 -0.03413294 22.41289916 -0.03783167 26.85289252 -0.04048073 C31.63490955 -0.04437745 36.4169158 -0.05395624 41.19892597 -0.0626936 C52.75625196 -0.08247639 64.31357884 -0.09252671 75.87091753 -0.10142139 C81.30975064 -0.10580149 86.74858278 -0.11116903 92.18741512 -0.11641026 C110.26122523 -0.13342467 128.33503473 -0.1479195 146.40885162 -0.155159 C151.10144966 -0.15706898 155.79404768 -0.1589893 160.4866457 -0.16094494 C161.6530089 -0.16142868 162.8193721 -0.16191242 164.02107964 -0.16241082 C182.92114391 -0.17071351 201.82114494 -0.19605352 220.72118159 -0.22852562 C240.1134228 -0.26157246 259.50563184 -0.27960562 278.89790136 -0.28280324 C289.79080074 -0.28497058 300.68360792 -0.29375199 311.57647991 -0.31926441 C320.8523409 -0.34093901 330.1280873 -0.34903783 339.40397074 -0.33929763 C344.13798934 -0.33474346 348.87177134 -0.33670386 353.60575771 -0.35605907 C357.93925332 -0.37362406 362.27233854 -0.37274748 366.6058381 -0.35716178 C368.17386514 -0.35477553 369.74192011 -0.35916176 371.30990436 -0.37099043 C386.25724822 -0.47676992 386.25724822 -0.47676992 393.16188633 5.40831304 C398.53446094 11.15557171 397.35561209 19.39058867 397.29525471 26.72807789 C397.30030165 28.33709792 397.30753162 29.94611233 397.31675285 31.55511385 C397.33568148 35.97065653 397.32343802 40.38564535 397.30602992 44.80117404 C397.29266208 49.56542279 397.30809097 54.32959018 397.31985188 59.09383106 C397.33823758 68.42490092 397.32970973 77.75576147 397.31176365 87.08682483 C397.2977411 94.67051035 397.29384411 102.25413902 397.29720592 109.83783627 C397.29768337 110.91696894 397.29816081 111.99610161 397.29865272 113.10793527 C397.29967905 115.30014869 397.3007344 117.49236211 397.30181848 119.68457551 C397.31038754 139.07269912 397.29370432 158.46072167 397.26398945 177.84882069 C397.23515558 196.66234045 397.22806637 215.47571458 397.24348164 234.28925037 C397.26024324 254.77397368 397.26427809 275.25862784 397.24677128 295.74335295 C397.24492688 297.927832 397.24309216 300.11231106 397.2412672 302.29679012 C397.24035511 303.37160252 397.23944302 304.44641491 397.2385033 305.55379738 C397.23289735 313.12785263 397.23620567 320.70187412 397.24281216 328.27592754 C397.25054428 337.50701612 397.24379718 346.73796133 397.21863712 355.96902101 C397.20613887 360.67887705 397.19999952 365.38850986 397.21117878 370.09837437 C397.22122134 374.41078228 397.21276123 378.7227451 397.1895976 383.03509886 C397.18443937 384.59423353 397.18599827 386.1534081 397.19499225 387.71252536 C397.27252255 402.3733522 397.27252255 402.3733522 392.66706562 409.13422108 C387.49799454 413.24837969 383.7267104 414.25820124 377.22949409 414.27402878 C376.24019835 414.27845591 376.24019835 414.27845591 375.23091683 414.28297248 C373.00534145 414.29168303 370.77981792 414.29324589 368.55422688 414.29485035 C366.94866585 414.29957999 365.34310602 414.30473072 363.73754758 414.31026798 C359.31315947 414.32419319 354.8887796 414.33176306 350.46437514 414.33824098 C346.67253797 414.34460675 342.88071437 414.35467756 339.08888564 414.36480164 C326.59535575 414.39814339 314.10181761 414.41964955 301.6082578 414.43800148 C298.35597899 414.44279547 295.10370052 414.44777891 291.85142207 414.45280671 C271.66299197 414.48377513 251.47455903 414.51046548 231.28611183 414.52722549 C226.60881578 414.53117511 221.93151977 414.53517809 217.25422382 414.53925037 C215.51040666 414.54076292 215.51040666 414.54076292 213.73136088 414.54230601 C194.89343291 414.5593176 176.0556362 414.60043176 157.21777234 414.65127336 C137.88538697 414.70302126 118.55306915 414.73216397 99.22061509 414.73942238 C88.36285563 414.74408802 77.50531116 414.75887492 66.6476202 414.79916668 C57.40178832 414.83343503 48.15621022 414.84741891 38.91031847 414.83474254 C34.1922549 414.82890831 29.47472826 414.83283327 24.75674534 414.86291218 C20.43664272 414.89022989 16.11745963 414.88981027 11.79733696 414.86740173 C10.2353699 414.86417329 8.67334176 414.87107939 7.11147646 414.88919895 C-6.91925329 415.04209183 -6.91925329 415.04209183 -12.84359771 410.00705582 C-16.59012849 405.29580875 -17.70806343 401.26575866 -17.71325111 395.30630207 C-17.71791103 394.64102247 -17.72257095 393.97574288 -17.72737208 393.29030329 C-17.73931437 391.06306578 -17.72993006 388.83643917 -17.72061443 386.60919666 C-17.72478769 384.99549377 -17.73026516 383.38179381 -17.73693424 381.76809931 C-17.75140849 377.3351653 -17.74713797 372.9024169 -17.73976743 368.46947265 C-17.73504301 363.68821474 -17.74753911 358.90699741 -17.75778484 354.12575245 C-17.77499189 344.75984339 -17.77580898 335.39400135 -17.77057194 326.02808058 C-17.76653289 318.41718815 -17.76797064 310.80631556 -17.7733202 303.19542408 C-17.77406862 302.11280311 -17.77481704 301.03018214 -17.77558814 299.91475448 C-17.77711959 297.71553107 -17.77865794 295.51630766 -17.78020311 293.31708425 C-17.79393481 272.68790234 -17.78848554 252.05875834 -17.7770179 231.42957729 C-17.76708272 212.54848393 -17.78002994 193.66748852 -17.80395209 174.78641027 C-17.82832164 155.40646847 -17.83795637 136.02657233 -17.83129936 116.64661551 C-17.82780264 105.76331992 -17.83006917 94.88009971 -17.84755039 83.99681568 C-17.86224548 74.73308737 -17.86294304 65.46948751 -17.84547948 56.20576179 C-17.83694526 51.47792419 -17.83487889 46.75031634 -17.85013103 42.0224905 C-17.86391598 37.69597618 -17.85929529 33.36988976 -17.8398918 29.04340059 C-17.8361124 27.47686302 -17.83910931 25.91029168 -17.84950345 24.34378403 C-17.86261944 22.21605161 -17.85114079 20.08980794 -17.83350563 17.96214008 C-17.83339829 16.77990565 -17.83329096 15.59767121 -17.83318037 14.37961149 C-17.04488572 9.26547971 -14.52412631 6.18360445 -10.70793438 2.82172108 C-6.85434914 0.08364736 -4.72730913 0.00714591 0 0 Z M-5.70830679 11.75884867 C-7.84837069 14.88784191 -7.8341986 16.86308748 -7.83629894 20.6435442 C-7.84211271 21.29867343 -7.84792647 21.95380266 -7.85391641 22.6287843 C-7.86856551 24.83368533 -7.85460964 27.03748165 -7.84086895 29.24237537 C-7.84547596 30.83515557 -7.85182753 32.42793153 -7.85977793 34.02069855 C-7.87652199 38.40506132 -7.86820197 42.78907716 -7.85583305 47.17344141 C-7.84680557 51.89880574 -7.86074082 56.62410921 -7.87175274 61.34946156 C-7.88956721 70.60938473 -7.88568496 79.86917845 -7.87410218 89.12910676 C-7.86507963 96.65282554 -7.86383874 104.17650796 -7.86819744 111.7002306 C-7.86881037 112.76982319 -7.86942331 113.83941577 -7.87005481 114.94142026 C-7.87133367 117.11407321 -7.87263053 119.28672615 -7.87394518 121.45937908 C-7.88535955 141.84672176 -7.87222382 162.23399257 -7.85074371 182.62132347 C-7.83287196 200.12598419 -7.83597583 217.63053883 -7.85441875 235.13519764 C-7.87581033 255.44809212 -7.88426084 275.76092357 -7.8719697 296.07382774 C-7.87069546 298.23862234 -7.86943798 300.40341694 -7.86819744 302.56821156 C-7.86758034 303.63341532 -7.86696324 304.69861908 -7.86632743 305.79610175 C-7.86286939 313.31339508 -7.86871265 320.83064852 -7.87811565 328.34793568 C-7.889318 337.50527737 -7.88633283 346.66248186 -7.86499268 355.81980777 C-7.85445844 360.49472308 -7.85040068 365.16940939 -7.86358929 369.84432316 C-7.8754701 374.12024423 -7.8690224 378.3957231 -7.84767908 382.6716038 C-7.84319463 384.22201175 -7.84552038 385.77245672 -7.85518223 387.32284105 C-7.86727681 389.42406427 -7.85494495 391.52375588 -7.83629894 393.62489796 C-7.83564953 394.79378716 -7.83500012 395.96267637 -7.83433104 397.16698647 C-7.53616219 400.19316858 -7.53616219 400.19316858 -5.70830679 402.50959349 C-2.57931355 404.64965739 -0.60406797 404.6354853 3.17638874 404.63758564 C4.15908259 404.64630628 4.15908259 404.64630628 5.16162884 404.6552031 C7.36652988 404.66985221 9.5703262 404.65589634 11.77521992 404.64215565 C13.36800012 404.64676266 14.96077607 404.65311423 16.55354309 404.66106462 C20.93790586 404.67780868 25.32192171 404.66948867 29.70628595 404.65711975 C34.43165028 404.64809227 39.15695375 404.66202752 43.8823061 404.67303944 C53.14222928 404.69085391 62.40202299 404.68697166 71.6619513 404.67538887 C79.18567009 404.66636632 86.70935251 404.66512544 94.23307514 404.66948414 C95.83746402 404.67040354 95.83746402 404.67040354 97.4742648 404.67134151 C99.64691775 404.67262037 101.81957069 404.67391722 103.99222362 404.67523187 C124.3795663 404.68664625 144.76683711 404.67351052 165.15416801 404.65203041 C182.65882874 404.63415866 200.16338337 404.63726253 217.66804218 404.65570545 C237.98093667 404.67709702 258.29376811 404.68554753 278.60667229 404.6732564 C280.77146688 404.67198216 282.93626149 404.67072468 285.1010561 404.66948414 C286.16625986 404.66886704 287.23146363 404.66824993 288.32894629 404.66761413 C295.84623962 404.66415609 303.36349307 404.66999935 310.88078022 404.67940235 C320.03812191 404.6906047 329.1953264 404.68761952 338.35265231 404.66627938 C343.02756762 404.65574514 347.70225393 404.65168738 352.3771677 404.66487598 C356.65308877 404.6767568 360.92856764 404.6703091 365.20444834 404.64896578 C366.75485629 404.64448132 368.30530126 404.64680708 369.85568559 404.65646893 C371.95690881 404.66856351 374.05660043 404.65623164 376.1577425 404.63758564 C377.32663171 404.63693623 378.49552092 404.63628682 379.69983101 404.63561773 C382.72601312 404.33744889 382.72601312 404.33744889 385.04243803 402.50959349 C387.18250193 399.38060024 387.16832984 397.40535467 387.17043018 393.62489796 C387.17915083 392.64220411 387.17915083 392.64220411 387.18804765 391.63965786 C387.20269675 389.43475682 387.18874088 387.2309605 387.17500019 385.02606678 C387.1796072 383.43328658 387.18595877 381.84051063 387.19390917 380.24774361 C387.21065323 375.86338083 387.20233322 371.47936499 387.18996429 367.09500074 C387.18093681 362.36963642 387.19487206 357.64433295 387.20588398 352.9189806 C387.22369845 343.65905742 387.2198162 334.39926371 387.20823342 325.13933539 C387.19921087 317.61561661 387.19796998 310.09193419 387.20232868 302.56821156 C387.20324808 300.96382267 387.20324808 300.96382267 387.20418605 299.3270219 C387.20546491 297.15436895 387.20676177 294.98171601 387.20807642 292.80906308 C387.21949079 272.4217204 387.20635506 252.03444958 387.18487495 231.64711869 C387.1670032 214.14245796 387.17010707 196.63790333 387.18855 179.13324451 C387.20994157 158.82035003 387.21839208 138.50751858 387.20610094 118.19461441 C387.2048267 116.02981982 387.20356922 113.86502521 387.20232868 111.7002306 C387.20171158 110.63502683 387.20109448 109.56982307 387.20045868 108.4723404 C387.19700063 100.95504708 387.20284389 93.43779363 387.21224689 85.92050648 C387.22344924 76.76316479 387.22046407 67.6059603 387.19912392 58.44863439 C387.18858969 53.77371908 387.18453192 49.09903276 387.19772053 44.424119 C387.20960134 40.14819792 387.20315364 35.87271906 387.18181032 31.59683836 C387.17732587 30.04643041 387.17965162 28.49598543 387.18931347 26.94560111 C387.20140806 24.84437788 387.18907619 22.74468627 387.17043018 20.6435442 C387.16978077 19.47465499 387.16913136 18.30576578 387.16846228 17.10145569 C386.87029343 14.07527358 386.87029343 14.07527358 385.04243803 11.75884867 C381.91344479 9.61878476 379.93819921 9.63295685 376.1577425 9.63085651 C375.50261327 9.62504275 374.84748403 9.61922899 374.1725024 9.61323905 C371.96760136 9.59858994 369.76380505 9.61254582 367.55891132 9.62628651 C365.96613112 9.6216795 364.37335517 9.61532792 362.78058815 9.60737753 C358.39622538 9.59063347 354.01220954 9.59895348 349.62784529 9.6113224 C344.90248096 9.62034989 340.17717749 9.60641463 335.45182514 9.59540272 C326.19190196 9.57758824 316.93210825 9.5814705 307.67217994 9.59305328 C300.14846116 9.60207583 292.62477873 9.60331672 285.1010561 9.59895802 C283.49666722 9.59803862 283.49666722 9.59803862 281.85986644 9.59710065 C279.68721349 9.59582178 277.51456055 9.59452493 275.34190762 9.59321028 C254.95456494 9.5817959 234.56729413 9.59493163 214.17996323 9.61641175 C196.6753025 9.63428349 179.17074787 9.63117963 161.66608906 9.6127367 C141.35319457 9.59134513 121.04036313 9.58289462 100.72745895 9.59518576 C98.56266436 9.59645999 96.39786976 9.59771748 94.23307514 9.59895802 C93.16787138 9.59957512 92.10266761 9.60019222 91.00518495 9.60082802 C83.48789162 9.60428607 75.97063817 9.5984428 68.45335102 9.5890398 C59.29600933 9.57783746 50.13880484 9.58082263 40.98147893 9.60216278 C36.30656362 9.61269701 31.63187731 9.61675477 26.95696354 9.60356617 C22.68104247 9.59168536 18.4055636 9.59813305 14.1296829 9.61947638 C12.57927495 9.62396083 11.02882998 9.62163507 9.47844565 9.61197323 C7.37722243 9.59987864 5.27753082 9.61221051 3.17638874 9.63085651 C2.00749953 9.63150592 0.83861032 9.63215533 -0.36569977 9.63282442 C-3.39188188 9.93099327 -3.39188188 9.93099327 -5.70830679 11.75884867 Z " fill="#0A0A0A" transform="translate(59.33293437957764,41.86577892303467)"/>
<path d="M0 0 C11.88 0 23.76 0 36 0 C36 20.13 36 40.26 36 61 C51.84 61 67.68 61 84 61 C84 40.87 84 20.74 84 0 C95.88 0 107.76 0 120 0 C120 51.15 120 102.3 120 155 C108.12 155 96.24 155 84 155 C84 134.21 84 113.42 84 92 C68.16 92 52.32 92 36 92 C36 112.79 36 133.58 36 155 C24.12 155 12.24 155 0 155 C0 103.85 0 52.7 0 0 Z " fill="#040404" transform="translate(189,171)"/>
<path d="M0 0 C3.57291464 1.98495258 4.75429347 3.40328413 6.3125 7.1875 C7.69471696 14.85252131 7.64076932 21.92316324 4 29 C0.98567619 31.84686138 -0.41564122 32.01025191 -4.5625 31.9375 C-8.29128308 30.92055916 -9.67964113 30.03431545 -12 27 C-13.26133637 23.2159909 -13.26222833 19.6321504 -13.3125 15.6875 C-13.34150391 14.94048828 -13.37050781 14.19347656 -13.40039062 13.42382812 C-13.46062802 8.14610595 -12.49699666 5.18471771 -9 1 C-5.89951072 -0.55024464 -3.42105782 -0.28992015 0 0 Z " fill="#181818" transform="translate(233,398)"/>
<path d="M0 0 C2.63016161 2.1727422 4.47336894 3.94673788 6 7 C6.15129552 9.78441955 6.23138429 12.52712487 6.25 15.3125 C6.270625 16.07240234 6.29125 16.83230469 6.3125 17.61523438 C6.34486044 22.27109203 5.94913917 25.18473015 3 29 C0.60713116 31.39286884 -0.09447094 31.32050616 -3.375 31.375 C-6.55977997 31.2932079 -7.73077719 31.17948187 -10.4375 29.375 C-14.24490289 23.58774761 -14.67651234 17.75471553 -14 11 C-13.11718878 7.17878064 -11.87095876 3.99538144 -9.25 1 C-5.91089505 -0.48404664 -3.61155586 -0.50688503 0 0 Z " fill="#181818" transform="translate(257,398)"/>
<path d="M0 0 C0.08732726 3.89569135 0.14050185 7.79112982 0.1875 11.6875 C0.21263672 12.79029297 0.23777344 13.89308594 0.26367188 15.02929688 C0.27333984 16.09599609 0.28300781 17.16269531 0.29296875 18.26171875 C0.3086792 19.24100342 0.32438965 20.22028809 0.34057617 21.22924805 C-0.06090866 24.49552145 -1.08965798 26.34574352 -3 29 C-6.65587903 31.5373452 -9.69186169 31.13036674 -13.9375 30.55078125 C-16 30 -16 30 -18.0625 28.0625 C-19 26 -19 26 -19 24 C-17.35 24.33 -15.7 24.66 -14 25 C-14 25.66 -14 26.32 -14 27 C-10.58357241 27.25015873 -10.58357241 27.25015873 -7 27 C-4.7226499 24.18490007 -4.7226499 24.18490007 -5 21 C-5.66 21.33 -6.32 21.66 -7 22 C-13.1726283 22.45723173 -13.1726283 22.45723173 -16.375 20.6875 C-19.84824762 17.08066594 -19.32413703 12.38451919 -19.29296875 7.671875 C-18.90147445 4.10144702 -17.66890566 2.35491676 -15 0 C-10.41967611 -2.29016195 -4.86615495 -0.72732565 0 0 Z " fill="#0D0D0D" transform="translate(291,356)"/>
<path d="M0 0 C1.32 0 2.64 0 4 0 C4 10.23 4 20.46 4 31 C2.35 30.67 0.7 30.34 -1 30 C-1.66 30.33 -2.32 30.66 -3 31 C-9.1726283 31.45723173 -9.1726283 31.45723173 -12.375 29.6875 C-15.84824762 26.08066594 -15.32413703 21.38451919 -15.29296875 16.671875 C-14.90147445 13.10144702 -13.66890566 11.35491676 -11 9 C-8.26094655 7.63047327 -6.02912668 7.87378639 -3 8 C-2.34 8.33 -1.68 8.66 -1 9 C-0.67 6.03 -0.34 3.06 0 0 Z " fill="#0B0B0B" transform="translate(225,347)"/>
<path d="M0 0 C3.52382575 2.19260269 5.50548492 4.15508015 7 8 C7.87377057 16.25001976 7.65357712 23.01963432 3 30 C-0.45075778 31.72537889 -4.2267517 31.49595093 -8 31 C-10.5625 29.1875 -10.5625 29.1875 -12 27 C-12 26.01 -12 25.02 -12 24 C-10.68 24 -9.36 24 -8 24 C-7.67 24.99 -7.34 25.98 -7 27 C-5.02 27 -3.04 27 -1 27 C0.98 22.545 0.98 22.545 3 18 C2.01 18.66 1.02 19.32 0 20 C-3.09463501 20.39930774 -5.04120388 20.65047463 -8 20 C-11.54267741 16.97396305 -12.82195182 15.10785537 -13.5625 10.5 C-12.9051093 6.40956896 -11.59081908 4.20042356 -9 1 C-5.89951072 -0.55024464 -3.42105782 -0.28992015 0 0 Z " fill="#0E0E0E" transform="translate(304,398)"/>
<path d="M0 0 C2.8100346 1.79363911 4.50940468 3.01880935 6 6 C6.51124099 11.20460087 6.86132441 15.56445931 4.125 20.125 C0.81552647 23.0451237 -1.53309651 23.33736622 -5.9609375 23.2890625 C-9.16544562 22.83478357 -10.82724211 21.30444019 -13 19 C-14.35416319 14.93751043 -14.54273091 11.24777396 -14 7 C-10.51364094 0.49212975 -7.3280415 -1.05287953 0 0 Z " fill="#0E0E0E" transform="translate(262,355)"/>
<path d="M0 0 C2.85746217 1.26998319 4.48137263 2.2838003 6.3125 4.8125 C7 7 7 7 7 13 C1.72 13 -3.56 13 -9 13 C-7.54711014 17.5841963 -7.54711014 17.5841963 -6 19 C-3.32941149 19.14115161 -0.67567762 19.04247107 2 19 C2.33 18.01 2.66 17.02 3 16 C4.32 16 5.64 16 7 16 C5.75023244 19.65316671 5.32901247 20.78065836 2 23 C-2.50282411 23.72517392 -5.99285654 23.60000036 -9.9375 21.25 C-12.99092049 17.91899583 -13.87145424 16.15691184 -14.375 11.625 C-13.93060645 7.32919568 -12.70408706 5.32216411 -10 2 C-6.27420911 -0.48386059 -4.41288598 -0.3804212 0 0 Z " fill="#151515" transform="translate(309,355)"/>
<path d="M0 0 C1.65 0 3.3 0 5 0 C5 14.19 5 28.38 5 43 C3.02 43 1.04 43 -1 43 C-1.33 32.44 -1.66 21.88 -2 11 C-6.455 11.495 -6.455 11.495 -11 12 C-11 10.68 -11 9.36 -11 8 C-9.741875 7.608125 -8.48375 7.21625 -7.1875 6.8125 C-3.14263116 5.33647769 -2.12066936 3.73641744 0 0 Z " fill="#101010" transform="translate(95,83)"/>
<path d="M0 0 C1.32 0 2.64 0 4 0 C4 4.29 4 8.58 4 13 C9.28 13 14.56 13 20 13 C20 8.71 20 4.42 20 0 C21.32 0 22.64 0 24 0 C24 10.23 24 20.46 24 31 C22.68 31 21.36 31 20 31 C20 26.05 20 21.1 20 16 C14.72 16 9.44 16 4 16 C4 20.95 4 25.9 4 31 C2.68 31 1.36 31 0 31 C0 20.77 0 10.54 0 0 Z " fill="#050505" transform="translate(159,347)"/>
<path d="M0 0 C2.5 0.5 2.5 0.5 4.1328125 2.03515625 C6.029632 5.45485083 5.93745329 8.631319 5.875 12.4375 C5.88660156 13.14068359 5.89820313 13.84386719 5.91015625 14.56835938 C5.88516574 19.01250579 5.37190397 22.04568194 2.5 25.5 C-0.6875 25.8125 -0.6875 25.8125 -3.5 25.5 C-6.09160272 21.61775848 -5.83156854 17.49254851 -5.8125 13 C-5.82861328 12.24074219 -5.84472656 11.48148437 -5.86132812 10.69921875 C-5.86423593 7.37850145 -5.74192988 4.94365364 -4.13671875 2 C-2.5 0.5 -2.5 0.5 0 0 Z " fill="#FAFAFA" transform="translate(253.5,400.5)"/>
<path d="M0 0 C2.5 0.5625 2.5 0.5625 4.13671875 2.06640625 C6.09530549 5.65247195 5.89689631 9.08574601 5.8125 13.0625 C5.81572266 13.82175781 5.81894531 14.58101563 5.82226562 15.36328125 C5.78510379 19.22135498 5.67974228 22.2972287 3.5 25.5625 C0.6875 25.875 0.6875 25.875 -2.5 25.5625 C-5.76785733 21.56337389 -5.9053061 18.11351709 -5.875 13.0625 C-5.88273438 11.7734375 -5.89046875 10.484375 -5.8984375 9.15625 C-5.41068904 4.75695014 -4.67499118 1.05187302 0 0 Z " fill="#FAFAFA" transform="translate(229.5,400.4375)"/>
<path d="M0 0 C1.32 0 2.64 0 4 0 C4 0.66 4 1.32 4 2 C4.99 1.34 5.98 0.68 7 0 C10.4375 -0.4375 10.4375 -0.4375 14 0 C16.43007756 2.14190907 17.82496465 3.83827886 18.31616211 7.09838867 C18.39349106 9.51536191 18.34915906 11.89645135 18.25 14.3125 C18.23195313 15.14845703 18.21390625 15.98441406 18.1953125 16.84570312 C18.14841126 18.89763228 18.07667411 20.94896756 18 23 C16.68 23 15.36 23 14 23 C13.67 17.06 13.34 11.12 13 5 C10.69 5 8.38 5 6 5 C3.88074396 7.11925604 4.58168983 11.6196093 4.4375 14.5625 C4.39431641 15.36880859 4.35113281 16.17511719 4.30664062 17.00585938 C4.20024738 19.00368805 4.09959112 21.0018207 4 23 C2.68 23 1.36 23 0 23 C0 15.41 0 7.82 0 0 Z " fill="#1D1D1D" transform="translate(321,355)"/>
<path d="M0 0 C1.32 0 2.64 0 4 0 C5.65 4.62 7.3 9.24 9 14 C9.804375 12.06125 10.60875 10.1225 11.4375 8.125 C13.875 2.25 13.875 2.25 15 0 C16.32 0 17.64 0 19 0 C17.25385387 6.61872532 14.96884377 13.0355123 12.5625 19.4375 C12.27431396 20.23075684 11.98612793 21.02401367 11.68920898 21.84130859 C8.89198069 29.14774715 8.89198069 29.14774715 5 31 C3.68 31 2.36 31 1 31 C1 29.68 1 28.36 1 27 C2.32 26.67 3.64 26.34 5 26 C6.37958876 19.97710963 5.45520453 16.36264608 3.0625 10.75 C0 3.30764967 0 3.30764967 0 0 Z " fill="#0E0E0E" transform="translate(188,356)"/>
<path d="M0 0 C6.6 0 13.2 0 20 0 C19.07472186 7.40222508 17.50480305 12.67530546 14.75 19.4375 C14.36714844 20.44232422 13.98429687 21.44714844 13.58984375 22.48242188 C13.01169922 23.91231445 13.01169922 23.91231445 12.421875 25.37109375 C12.07737305 26.23661865 11.73287109 27.10214355 11.37792969 27.99389648 C10 30 10 30 7.34863281 30.78930664 C6.57358398 30.85883545 5.79853516 30.92836426 5 31 C6.99332068 24.60703339 9.41474614 18.52953606 12.1875 12.4375 C12.73954102 11.21063477 12.73954102 11.21063477 13.30273438 9.95898438 C14.19795013 7.97090782 15.0984165 5.98519692 16 4 C10.72 4 5.44 4 0 4 C0 2.68 0 1.36 0 0 Z " fill="#161616" transform="translate(267,398)"/>
<path d="M0 0 C2.69469307 4.04203961 2.53918165 7.25862489 2 12 C0.875 14.5625 0.875 14.5625 -1 16 C-4 16.5 -4 16.5 -7 16 C-9.21633759 14.22692993 -9.88354434 12.9020692 -10.24609375 10.09375 C-10.36598391 6.31368382 -10.28219628 3.16971705 -8 0 C-5.06791253 -1.46604374 -3.11702298 -0.77925574 0 0 Z " fill="#F9F9F9" transform="translate(262,359)"/>
<path d="M0 0 C5.75 0.875 5.75 0.875 8 2 C8.08107583 3.93681161 8.13922475 5.8745934 8.1875 7.8125 C8.22230469 8.89144531 8.25710938 9.97039062 8.29296875 11.08203125 C8 14 8 14 6.6796875 15.86328125 C4.07727542 17.62444849 2.04687103 17.38896226 -1 17 C-3.13749925 13.79375113 -3.29574999 12.77541897 -3.3125 9.0625 C-3.32925781 8.20785156 -3.34601563 7.35320312 -3.36328125 6.47265625 C-2.93504169 3.5578644 -1.92290461 2.18673321 0 0 Z " fill="#F8F8F8" transform="translate(279,358)"/>
<path d="M0 0 C5.75 0.875 5.75 0.875 8 2 C8.08107583 3.93681161 8.13922475 5.8745934 8.1875 7.8125 C8.22230469 8.89144531 8.25710937 9.97039062 8.29296875 11.08203125 C8 14 8 14 6.6796875 15.86328125 C4.07727542 17.62444849 2.04687103 17.38896226 -1 17 C-3.13749925 13.79375113 -3.29574999 12.77541897 -3.3125 9.0625 C-3.32925781 8.20785156 -3.34601563 7.35320312 -3.36328125 6.47265625 C-2.93504169 3.5578644 -1.92290461 2.18673321 0 0 Z " fill="#F8F8F8" transform="translate(217,358)"/>
<path d="M0 0 C0.99 0 1.98 0 3 0 C3 10.23 3 20.46 3 31 C1.68 31 0.36 31 -1 31 C-1.33 23.41 -1.66 15.82 -2 8 C-3.98 8 -5.96 8 -8 8 C-8 7.01 -8 6.02 -8 5 C-7.05125 4.731875 -6.1025 4.46375 -5.125 4.1875 C-1.74732727 3.25013412 -1.74732727 3.25013412 0 0 Z " fill="#090909" transform="translate(195,398)"/>
<path d="M0 0 C2.5625 0.5625 2.5625 0.5625 4.875 2.625 C6.95492571 6.24561141 7.10576167 8.44923306 6.5625 12.5625 C3.09207297 14.87611802 1.64415827 15.07270728 -2.4375 14.5625 C-5.01021448 12.33281412 -5.39061909 10.93754726 -5.8125 7.5625 C-5.28221847 3.32024776 -4.33908874 1.00132817 0 0 Z " fill="#F4F4F4" transform="translate(300.4375,400.4375)"/>
<path d="M0 0 C1.32 0 2.64 0 4 0 C4 1.32 4 2.64 4 4 C2.02 4.66 0.04 5.32 -2 6 C-2.33 11.61 -2.66 17.22 -3 23 C-4.32 23 -5.64 23 -7 23 C-7 15.74 -7 8.48 -7 1 C-4.525 1.495 -4.525 1.495 -2 2 C-1.34 1.34 -0.68 0.68 0 0 Z " fill="#0B0B0B" transform="translate(242,355)"/>
<path d="M0 0 C6.42061701 -0.48457487 6.42061701 -0.48457487 8.71875 1.4375 C10.65993847 5.31987694 10.31768369 8.9773045 10.1875 13.25 C10.17396484 14.09046875 10.16042969 14.9309375 10.14648438 15.796875 C10.11123464 17.86485938 10.0574302 19.93251271 10 22 C8.68 22 7.36 22 6 22 C5.67 16.06 5.34 10.12 5 4 C3.02 3.34 1.04 2.68 -1 2 C-0.67 1.34 -0.34 0.68 0 0 Z " fill="#070707" transform="translate(329,356)"/>
<path d="M0 0 C3.5 0.1875 3.5 0.1875 7 1 C9 4 9 4 9 7 C5.04 7 1.08 7 -3 7 C-2 2 -2 2 0 0 Z " fill="#DEDEDE" transform="translate(303,358)"/>
<path d="M0 0 C1.32 0 2.64 0 4 0 C4 1.32 4 2.64 4 4 C1.69 4.66 -0.62 5.32 -3 6 C-1.125 1.125 -1.125 1.125 0 0 Z " fill="#131313" transform="translate(242,355)"/>
</svg>
